<svg width="18" height="20" viewBox="0 0 18 20" fill="none" xmlns="http://www.w3.org/2000/svg">
<path d="M2.6 0C1.91044 0 1.24912 0.273928 0.761522 0.761522C0.273928 1.24912 0 1.91044 0 2.6V7.4C0 7.74144 0.0672509 8.07953 0.197913 8.39498C0.328575 8.71042 0.52009 8.99705 0.761522 9.23848C1.24912 9.72607 1.91044 10 2.6 10H5.4C6.08956 10 6.75088 9.72607 7.23848 9.23848C7.72607 8.75088 8 8.08956 8 7.4V2.6C8 1.91044 7.72607 1.24912 7.23848 0.761522C6.75088 0.273928 6.08956 0 5.4 0H2.6ZM2.6 12C1.91044 12 1.24912 12.2739 0.761522 12.7615C0.273928 13.2491 0 13.9104 0 14.6V17.4C0 18.0896 0.273928 18.7509 0.761522 19.2385C1.24912 19.7261 1.91044 20 2.6 20H5.4C6.08956 20 6.75088 19.7261 7.23848 19.2385C7.72607 18.7509 8 18.0896 8 17.4V14.6C8 13.9104 7.72607 13.2491 7.23848 12.7615C6.75088 12.2739 6.08956 12 5.4 12H2.6ZM12.6 0C11.9104 0 11.2491 0.273928 10.7615 0.761522C10.2739 1.24912 10 1.91044 10 2.6V5.4C10 6.08956 10.2739 6.75088 10.7615 7.23848C11.2491 7.72607 11.9104 8 12.6 8H15.4C15.7414 8 16.0795 7.93275 16.395 7.80209C16.7104 7.67142 16.997 7.47991 17.2385 7.23848C17.4799 6.99705 17.6714 6.71042 17.8021 6.39498C17.9327 6.07953 18 5.74144 18 5.4V2.6C18 2.25856 17.9327 1.92047 17.8021 1.60502C17.6714 1.28958 17.4799 1.00295 17.2385 0.761522C16.997 0.52009 16.7104 0.328575 16.395 0.197913C16.0795 0.0672509 15.7414 0 15.4 0H12.6ZM12.6 10C11.9104 10 11.2491 10.2739 10.7615 10.7615C10.2739 11.2491 10 11.9104 10 12.6V17.4C10 18.0896 10.2739 18.7509 10.7615 19.2385C11.2491 19.7261 11.9104 20 12.6 20H15.4C15.7414 20 16.0795 19.9327 16.395 19.8021C16.7104 19.6714 16.997 19.4799 17.2385 19.2385C17.4799 18.997 17.6714 18.7104 17.8021 18.395C17.9327 18.0795 18 17.7414 18 17.4V12.6C18 12.2586 17.9327 11.9205 17.8021 11.605C17.6714 11.2896 17.4799 11.003 17.2385 10.7615C16.997 10.5201 16.7104 10.3286 16.395 10.1979C16.0795 10.0673 15.7414 10 15.4 10H12.6Z" fill="black"/>
</svg>
