<svg width="24" height="16" viewBox="0 0 24 16" fill="none" xmlns="http://www.w3.org/2000/svg">
<path d="M0 16V13.9C0 12.9444 0.366667 12.1667 1.1 11.5667C1.83333 10.9667 2.8 10.6667 4 10.6667C4.21667 10.6667 4.425 10.6724 4.625 10.684C4.825 10.6956 5.01667 10.7231 5.2 10.7667C4.96667 11.2333 4.79167 11.7222 4.675 12.2333C4.55833 12.7444 4.5 13.2778 4.5 13.8333V16H0ZM6 16V13.8333C6 13.1222 6.146 12.472 6.438 11.8827C6.73 11.2933 7.14233 10.7769 7.675 10.3333C8.20767 9.88978 8.84533 9.55644 9.588 9.33333C10.3307 9.11022 11.1347 8.99911 12 9C12.8833 9 13.696 9.11111 14.438 9.33333C15.18 9.55556 15.8173 9.88889 16.35 10.3333C16.8827 10.7778 17.291 11.2947 17.575 11.884C17.859 12.4733 18.0007 13.1231 18 13.8333V16H6ZM19.5 16V13.8333C19.5 13.2556 19.446 12.7111 19.338 12.2C19.23 11.6889 19.0673 11.2111 18.85 10.7667C19.0333 10.7222 19.221 10.6947 19.413 10.684C19.605 10.6733 19.8007 10.6676 20 10.6667C21.2 10.6667 22.1667 10.9613 22.9 11.5507C23.6333 12.14 24 12.9231 24 13.9V16H19.5ZM4 9.33333C3.45 9.33333 2.97933 9.07244 2.588 8.55067C2.19667 8.02889 2.00067 7.40089 2 6.66667C2 5.91111 2.196 5.27778 2.588 4.76667C2.98 4.25556 3.45067 4 4 4C4.56667 4 5.04167 4.25556 5.425 4.76667C5.80833 5.27778 6 5.91111 6 6.66667C6 7.4 5.80833 8.028 5.425 8.55067C5.04167 9.07333 4.56667 9.33422 4 9.33333ZM20 9.33333C19.45 9.33333 18.9793 9.07244 18.588 8.55067C18.1967 8.02889 18.0007 7.40089 18 6.66667C18 5.91111 18.196 5.27778 18.588 4.76667C18.98 4.25556 19.4507 4 20 4C20.5667 4 21.0417 4.25556 21.425 4.76667C21.8083 5.27778 22 5.91111 22 6.66667C22 7.4 21.8083 8.028 21.425 8.55067C21.0417 9.07333 20.5667 9.33422 20 9.33333ZM12 8C11.1667 8 10.4583 7.61111 9.875 6.83333C9.29167 6.05556 9 5.11111 9 4C9 2.86667 9.29167 1.91689 9.875 1.15067C10.4583 0.384444 11.1667 0.000888889 12 0C12.85 0 13.5627 0.383555 14.138 1.15067C14.7133 1.91778 15.0007 2.86756 15 4C15 5.11111 14.7127 6.05556 14.138 6.83333C13.5633 7.61111 12.8507 8 12 8Z" fill="black"/>
</svg>
