<svg width="16" height="20" viewBox="0 0 16 20" fill="none" xmlns="http://www.w3.org/2000/svg">
<path fill-rule="evenodd" clip-rule="evenodd" d="M2.271 0.112C1.461 0.218 1.033 0.413 0.727 0.712C0.422 1.012 0.223 1.432 0.114 2.225C0.00199984 3.042 0 4.124 0 5.675V14.245C0.395977 13.9746 0.835325 13.7741 1.299 13.652C1.827 13.513 2.443 13.513 3.346 13.514H16V5.676C16 4.124 15.998 3.042 15.886 2.225C15.777 1.432 15.578 1.012 15.273 0.712C14.967 0.413 14.539 0.218 13.729 0.112C12.895 0.00199999 11.791 0 10.207 0H5.793C4.209 0 3.105 0.00199999 2.271 0.112ZM2.759 4.595C2.759 4.147 3.129 3.784 3.586 3.784H12.414C12.631 3.78213 12.8398 3.86633 12.9948 4.01815C13.1498 4.16997 13.2384 4.37704 13.241 4.594C13.2386 4.81113 13.1502 5.01846 12.9952 5.17049C12.8401 5.32253 12.6311 5.40687 12.414 5.405H3.586C3.36903 5.40687 3.16017 5.32267 3.00516 5.17085C2.85016 5.01903 2.76164 4.81196 2.759 4.595ZM3.586 7.568C3.36903 7.56613 3.16017 7.65033 3.00516 7.80215C2.85016 7.95397 2.76164 8.16104 2.759 8.378C2.759 8.826 3.129 9.189 3.586 9.189H9.103C9.32014 9.19113 9.52926 9.10705 9.68448 8.9552C9.83971 8.80335 9.92836 8.59613 9.931 8.379C9.92863 8.16169 9.84009 7.95422 9.68483 7.80215C9.52958 7.65008 9.32031 7.56587 9.103 7.568H3.586Z" fill="black"/>
<path d="M3.47425 15.1328H16.0012C15.9982 16.2628 15.9802 17.1068 15.8882 17.7728C15.7792 18.5658 15.5802 18.9858 15.2752 19.2858C14.9692 19.5848 14.5412 19.7798 13.7312 19.8858C12.8972 19.9958 11.7932 19.9978 10.2092 19.9978H5.79425C4.21025 19.9978 3.10625 19.9958 2.27225 19.8868C1.46225 19.7798 1.03425 19.5848 0.72825 19.2858C0.42325 18.9858 0.22425 18.5658 0.11525 17.7728C0.0742496 17.4728 0.04725 17.1358 0.03125 16.7528C0.168315 16.3782 0.394405 16.0426 0.690037 15.7749C0.985669 15.5071 1.34198 15.3152 1.72825 15.2158C2.01825 15.1398 2.39525 15.1328 3.47425 15.1328Z" fill="black"/>
</svg>
